# xmcd
#
# Track frame offsets:
#	150
#	17337
#	37672
#	58882
#	77560
#	96272
#	111957
#	132955
#	147885
#	164575
#	178152
#	194100
#
# Disc length: 3011 seconds
#
# Revision: 0
# Processed by: cddbd v1.5.1PL0 Copyright (c) Steve Scherf et al.
# Submitted via: dBpowerAMP V4.0
#
DISCID=a40bc10c
DTITLE=The Big Elastic Band - When Big Roy sang on Annie McGregor's Juke Box
DYEAR=1900
DGENRE=Folk-Rock
TTITLE0=Jimmy Shand's on the Wireless
TTITLE1=The Old Folk
TTITLE2=Frontiersong
TTITLE3=Meet Me on the Landing
TTITLE4=On Golden Streets
TTITLE5=Along Came Rock and Roll
TTITLE6=When Big Roy Sang on Annie McGregor's Juke Box
TTITLE7=The Blue Lagoon
TTITLE8=All Stood Up
TTITLE9=Here We Go Again
TTITLE10=Sunday Morning - Saturday Night
TTITLE11=The Accordian under the Bed
EXTD=
EXTT0=
EXTT1=
EXTT2=
EXTT3=
EXTT4=
EXTT5=
EXTT6=
EXTT7=
EXTT8=
EXTT9=
EXTT10=
EXTT11=
PLAYORDER=
